<mxfile host="app.diagrams.net" modified="2023-12-14T15:00:43.131Z" agent="Mozilla/5.0 (Windows NT 10.0; Win64; x64) AppleWebKit/537.36 (KHTML, like Gecko) Chrome/120.0.0.0 Safari/537.36" etag="SneHLfv5gGA4VZqqHee7" version="22.1.8" type="github">
  <diagram name="Page-1" id="Tnb1LYuD4v5Ze2TXLWT_">
    <mxGraphModel dx="2271" dy="1918" grid="1" gridSize="10" guides="1" tooltips="1" connect="1" arrows="1" fold="1" page="1" pageScale="1" pageWidth="827" pageHeight="1169" math="0" shadow="0">
      <root>
        <mxCell id="0" />
        <mxCell id="1" parent="0" />
        <mxCell id="YOcneu-sLdmkh1eba5YB-1" value="Terrain" style="rounded=0;whiteSpace=wrap;html=1;" vertex="1" parent="1">
          <mxGeometry x="330" y="70" width="120" height="60" as="geometry" />
        </mxCell>
        <mxCell id="YOcneu-sLdmkh1eba5YB-2" value="hydrometrie&lt;br&gt;altitude&lt;br&gt;temperature" style="rounded=0;whiteSpace=wrap;html=1;" vertex="1" parent="1">
          <mxGeometry x="330" y="130" width="120" height="60" as="geometry" />
        </mxCell>
        <mxCell id="YOcneu-sLdmkh1eba5YB-3" value="getHydrometrie()&lt;br&gt;getAltitude()&lt;br&gt;getTemperature()" style="rounded=0;whiteSpace=wrap;html=1;" vertex="1" parent="1">
          <mxGeometry x="330" y="190" width="120" height="60" as="geometry" />
        </mxCell>
        <mxCell id="YOcneu-sLdmkh1eba5YB-63" style="edgeStyle=orthogonalEdgeStyle;rounded=0;orthogonalLoop=1;jettySize=auto;html=1;entryX=0;entryY=0.5;entryDx=0;entryDy=0;" edge="1" parent="1" source="YOcneu-sLdmkh1eba5YB-28" target="YOcneu-sLdmkh1eba5YB-2">
          <mxGeometry relative="1" as="geometry" />
        </mxCell>
        <mxCell id="YOcneu-sLdmkh1eba5YB-28" value="Plaine" style="rounded=0;whiteSpace=wrap;html=1;" vertex="1" parent="1">
          <mxGeometry x="60" y="270" width="120" height="60" as="geometry" />
        </mxCell>
        <mxCell id="YOcneu-sLdmkh1eba5YB-29" value="hydrometrie&lt;br&gt;altitude&lt;br&gt;temperature" style="rounded=0;whiteSpace=wrap;html=1;" vertex="1" parent="1">
          <mxGeometry x="60" y="330" width="120" height="60" as="geometry" />
        </mxCell>
        <mxCell id="YOcneu-sLdmkh1eba5YB-30" value="getHydrometrie()&lt;br&gt;getAltitude()&lt;br&gt;getTemperature()" style="rounded=0;whiteSpace=wrap;html=1;" vertex="1" parent="1">
          <mxGeometry x="60" y="390" width="120" height="60" as="geometry" />
        </mxCell>
        <mxCell id="YOcneu-sLdmkh1eba5YB-62" style="edgeStyle=orthogonalEdgeStyle;rounded=0;orthogonalLoop=1;jettySize=auto;html=1;entryX=0;entryY=0;entryDx=0;entryDy=0;" edge="1" parent="1" source="YOcneu-sLdmkh1eba5YB-31" target="YOcneu-sLdmkh1eba5YB-3">
          <mxGeometry relative="1" as="geometry" />
        </mxCell>
        <mxCell id="YOcneu-sLdmkh1eba5YB-31" value="Ocean" style="rounded=0;whiteSpace=wrap;html=1;" vertex="1" parent="1">
          <mxGeometry x="220" y="280" width="120" height="60" as="geometry" />
        </mxCell>
        <mxCell id="YOcneu-sLdmkh1eba5YB-32" value="hydrometrie&lt;br&gt;altitude&lt;br&gt;temperature" style="rounded=0;whiteSpace=wrap;html=1;" vertex="1" parent="1">
          <mxGeometry x="220" y="340" width="120" height="60" as="geometry" />
        </mxCell>
        <mxCell id="YOcneu-sLdmkh1eba5YB-33" value="getHydrometrie()&lt;br&gt;getAltitude()&lt;br&gt;getTemperature()" style="rounded=0;whiteSpace=wrap;html=1;" vertex="1" parent="1">
          <mxGeometry x="220" y="400" width="120" height="60" as="geometry" />
        </mxCell>
        <mxCell id="YOcneu-sLdmkh1eba5YB-61" style="edgeStyle=orthogonalEdgeStyle;rounded=0;orthogonalLoop=1;jettySize=auto;html=1;entryX=0.75;entryY=1;entryDx=0;entryDy=0;" edge="1" parent="1" source="YOcneu-sLdmkh1eba5YB-34" target="YOcneu-sLdmkh1eba5YB-3">
          <mxGeometry relative="1" as="geometry" />
        </mxCell>
        <mxCell id="YOcneu-sLdmkh1eba5YB-34" value="Montagne" style="rounded=0;whiteSpace=wrap;html=1;" vertex="1" parent="1">
          <mxGeometry x="400" y="300" width="120" height="60" as="geometry" />
        </mxCell>
        <mxCell id="YOcneu-sLdmkh1eba5YB-35" value="hydrometrie&lt;br&gt;altitude&lt;br&gt;temperature" style="rounded=0;whiteSpace=wrap;html=1;" vertex="1" parent="1">
          <mxGeometry x="400" y="360" width="120" height="60" as="geometry" />
        </mxCell>
        <mxCell id="YOcneu-sLdmkh1eba5YB-36" value="getHydrometrie()&lt;br&gt;getAltitude()&lt;br&gt;getTemperature()" style="rounded=0;whiteSpace=wrap;html=1;" vertex="1" parent="1">
          <mxGeometry x="400" y="420" width="120" height="60" as="geometry" />
        </mxCell>
        <mxCell id="YOcneu-sLdmkh1eba5YB-60" style="edgeStyle=orthogonalEdgeStyle;rounded=0;orthogonalLoop=1;jettySize=auto;html=1;entryX=1;entryY=0.25;entryDx=0;entryDy=0;" edge="1" parent="1" source="YOcneu-sLdmkh1eba5YB-37" target="YOcneu-sLdmkh1eba5YB-3">
          <mxGeometry relative="1" as="geometry" />
        </mxCell>
        <mxCell id="YOcneu-sLdmkh1eba5YB-37" value="Marais" style="rounded=0;whiteSpace=wrap;html=1;" vertex="1" parent="1">
          <mxGeometry x="570" y="300" width="120" height="60" as="geometry" />
        </mxCell>
        <mxCell id="YOcneu-sLdmkh1eba5YB-38" value="hydrometrie&lt;br&gt;altitude&lt;br&gt;temperature" style="rounded=0;whiteSpace=wrap;html=1;" vertex="1" parent="1">
          <mxGeometry x="570" y="360" width="120" height="60" as="geometry" />
        </mxCell>
        <mxCell id="YOcneu-sLdmkh1eba5YB-39" value="getHydrometrie()&lt;br&gt;getAltitude()&lt;br&gt;getTemperature()" style="rounded=0;whiteSpace=wrap;html=1;" vertex="1" parent="1">
          <mxGeometry x="570" y="420" width="120" height="60" as="geometry" />
        </mxCell>
        <mxCell id="YOcneu-sLdmkh1eba5YB-59" style="edgeStyle=orthogonalEdgeStyle;rounded=0;orthogonalLoop=1;jettySize=auto;html=1;entryX=1;entryY=0;entryDx=0;entryDy=0;" edge="1" parent="1" source="YOcneu-sLdmkh1eba5YB-40" target="YOcneu-sLdmkh1eba5YB-3">
          <mxGeometry relative="1" as="geometry" />
        </mxCell>
        <mxCell id="YOcneu-sLdmkh1eba5YB-40" value="Foret de feuillus" style="rounded=0;whiteSpace=wrap;html=1;" vertex="1" parent="1">
          <mxGeometry x="730" y="280" width="120" height="60" as="geometry" />
        </mxCell>
        <mxCell id="YOcneu-sLdmkh1eba5YB-41" value="hydrometrie&lt;br&gt;altitude&lt;br&gt;temperature" style="rounded=0;whiteSpace=wrap;html=1;" vertex="1" parent="1">
          <mxGeometry x="730" y="340" width="120" height="60" as="geometry" />
        </mxCell>
        <mxCell id="YOcneu-sLdmkh1eba5YB-42" value="getHydrometrie()&lt;br&gt;getAltitude()&lt;br&gt;getTemperature()" style="rounded=0;whiteSpace=wrap;html=1;" vertex="1" parent="1">
          <mxGeometry x="730" y="400" width="120" height="60" as="geometry" />
        </mxCell>
        <mxCell id="YOcneu-sLdmkh1eba5YB-55" style="edgeStyle=orthogonalEdgeStyle;rounded=0;orthogonalLoop=1;jettySize=auto;html=1;entryX=0;entryY=0.25;entryDx=0;entryDy=0;" edge="1" parent="1" source="YOcneu-sLdmkh1eba5YB-43" target="YOcneu-sLdmkh1eba5YB-2">
          <mxGeometry relative="1" as="geometry" />
        </mxCell>
        <mxCell id="YOcneu-sLdmkh1eba5YB-43" value="Toundra" style="rounded=0;whiteSpace=wrap;html=1;" vertex="1" parent="1">
          <mxGeometry x="-80" y="50" width="120" height="60" as="geometry" />
        </mxCell>
        <mxCell id="YOcneu-sLdmkh1eba5YB-44" value="hydrometrie&lt;br&gt;altitude&lt;br&gt;temperature" style="rounded=0;whiteSpace=wrap;html=1;" vertex="1" parent="1">
          <mxGeometry x="-80" y="110" width="120" height="60" as="geometry" />
        </mxCell>
        <mxCell id="YOcneu-sLdmkh1eba5YB-45" value="getHydrometrie()&lt;br&gt;getAltitude()&lt;br&gt;getTemperature()" style="rounded=0;whiteSpace=wrap;html=1;" vertex="1" parent="1">
          <mxGeometry x="-80" y="170" width="120" height="60" as="geometry" />
        </mxCell>
        <mxCell id="YOcneu-sLdmkh1eba5YB-46" value="Foret de conifÃ¨res" style="rounded=0;whiteSpace=wrap;html=1;" vertex="1" parent="1">
          <mxGeometry x="720" y="40" width="120" height="60" as="geometry" />
        </mxCell>
        <mxCell id="YOcneu-sLdmkh1eba5YB-58" style="edgeStyle=orthogonalEdgeStyle;rounded=0;orthogonalLoop=1;jettySize=auto;html=1;entryX=1;entryY=0.25;entryDx=0;entryDy=0;" edge="1" parent="1" source="YOcneu-sLdmkh1eba5YB-47" target="YOcneu-sLdmkh1eba5YB-2">
          <mxGeometry relative="1" as="geometry" />
        </mxCell>
        <mxCell id="YOcneu-sLdmkh1eba5YB-47" value="hydrometrie&lt;br&gt;altitude&lt;br&gt;temperature" style="rounded=0;whiteSpace=wrap;html=1;" vertex="1" parent="1">
          <mxGeometry x="720" y="100" width="120" height="60" as="geometry" />
        </mxCell>
        <mxCell id="YOcneu-sLdmkh1eba5YB-48" value="getHydrometrie()&lt;br&gt;getAltitude()&lt;br&gt;getTemperature()" style="rounded=0;whiteSpace=wrap;html=1;" vertex="1" parent="1">
          <mxGeometry x="720" y="160" width="120" height="60" as="geometry" />
        </mxCell>
        <mxCell id="YOcneu-sLdmkh1eba5YB-49" value="Collines" style="rounded=0;whiteSpace=wrap;html=1;" vertex="1" parent="1">
          <mxGeometry x="150" y="-160" width="120" height="60" as="geometry" />
        </mxCell>
        <mxCell id="YOcneu-sLdmkh1eba5YB-56" style="edgeStyle=orthogonalEdgeStyle;rounded=0;orthogonalLoop=1;jettySize=auto;html=1;entryX=0.5;entryY=0;entryDx=0;entryDy=0;" edge="1" parent="1" source="YOcneu-sLdmkh1eba5YB-50" target="YOcneu-sLdmkh1eba5YB-1">
          <mxGeometry relative="1" as="geometry" />
        </mxCell>
        <mxCell id="YOcneu-sLdmkh1eba5YB-50" value="hydrometrie&lt;br&gt;altitude&lt;br&gt;temperature" style="rounded=0;whiteSpace=wrap;html=1;" vertex="1" parent="1">
          <mxGeometry x="150" y="-100" width="120" height="60" as="geometry" />
        </mxCell>
        <mxCell id="YOcneu-sLdmkh1eba5YB-51" value="getHydrometrie()&lt;br&gt;getAltitude()&lt;br&gt;getTemperature()" style="rounded=0;whiteSpace=wrap;html=1;" vertex="1" parent="1">
          <mxGeometry x="150" y="-40" width="120" height="60" as="geometry" />
        </mxCell>
        <mxCell id="YOcneu-sLdmkh1eba5YB-52" value="DÃ©sert" style="rounded=0;whiteSpace=wrap;html=1;" vertex="1" parent="1">
          <mxGeometry x="520" y="-180" width="120" height="60" as="geometry" />
        </mxCell>
        <mxCell id="YOcneu-sLdmkh1eba5YB-57" style="edgeStyle=orthogonalEdgeStyle;rounded=0;orthogonalLoop=1;jettySize=auto;html=1;entryX=0.75;entryY=0;entryDx=0;entryDy=0;" edge="1" parent="1" source="YOcneu-sLdmkh1eba5YB-53" target="YOcneu-sLdmkh1eba5YB-1">
          <mxGeometry relative="1" as="geometry" />
        </mxCell>
        <mxCell id="YOcneu-sLdmkh1eba5YB-53" value="hydrometrie&lt;br&gt;altitude&lt;br&gt;temperature" style="rounded=0;whiteSpace=wrap;html=1;" vertex="1" parent="1">
          <mxGeometry x="520" y="-120" width="120" height="60" as="geometry" />
        </mxCell>
        <mxCell id="YOcneu-sLdmkh1eba5YB-54" value="getHydrometrie()&lt;br&gt;getAltitude()&lt;br&gt;getTemperature()" style="rounded=0;whiteSpace=wrap;html=1;" vertex="1" parent="1">
          <mxGeometry x="520" y="-60" width="120" height="60" as="geometry" />
        </mxCell>
      </root>
    </mxGraphModel> 
  </diagram>
</mxfile>
